<svg xmlns="http://www.w3.org/2000/svg" viewBox="0 0 462.399 151.578"><g id="Layer_2" data-name="Layer 2"><g id="Layer_1-2" data-name="Layer 1"><path d="M50.551,41.1c2.148-2.193,4.01-4.424,6.2-6.268C64.858,28,81.481,27.3,89.614,36.494a25.869,25.869,0,0,1,6.329,16.94c.274,9.74.165,19.492.12,29.239a6.65,6.65,0,0,1-6.667,6.7c-3.531,0-5.972-2.719-6.019-6.812-.109-9.409-.009-18.824-.332-28.225-.236-6.9-4.155-11.82-9.8-13.193-9.5-2.31-18.607,3.754-19.433,13.5-.582,6.868-.233,13.815-.287,20.726-.021,2.583.063,5.168-.022,7.748a5.864,5.864,0,0,1-6.134,5.866,5.966,5.966,0,0,1-5.834-5.965c-.049-8.5.016-17-.032-25.493-.024-4.119-.622-8.12-3.05-11.631-3.411-4.933-8.364-5.976-13.865-5.339C19.6,41.14,15.733,43.75,13.9,48.4a28.557,28.557,0,0,0-1.8,9.448c-.244,8.157-.058,16.327-.095,24.491-.014,3.13-1.189,4.832-3.779,5.8-2.564.961-5.178.452-6.74-1.687A7.11,7.11,0,0,1,.078,82.6Q-.063,59.36.05,36.116a5.935,5.935,0,0,1,7.664-5.862A5.492,5.492,0,0,1,12,35.7c.085,1.394.015,2.8.015,4.875,4.948-7.445,11.356-11.163,19.742-10.846C40.1,30.045,46.458,33.882,50.551,41.1Z"/><path d="M200.516,41.3c3.467-4.822,7.3-8.031,12.193-9.784,10.5-3.76,22.019-.2,29.18,8.968,9.313,11.919,7.968,31.8-2.868,42.381-9.221,9-23.954,9.606-33.527,1.281a56.174,56.174,0,0,1-4.436-4.919c-.054,1.11-.129,1.953-.13,2.8-.009,8.493.033,16.985-.02,25.478-.032,5.037-4.683,8.094-8.853,5.841-2.46-1.328-3.212-3.593-3.2-6.3.039-13.821.018-27.642.018-41.463,0-9.575-.034-19.15.017-28.725.025-4.536,2.587-6.917,6.612-6.344a6.1,6.1,0,0,1,5,5.982C200.579,37.818,200.516,39.149,200.516,41.3Zm.493,16.608c-.155,6.786,1.347,11.269,4.228,15.312,6.545,9.186,20.806,9.254,27.02-.143,5.273-7.974,5.145-16.661.834-24.876s-15.308-10.592-23.139-5.8C203.428,46.386,201.431,52.633,201.009,57.909Z"/><path d="M300.953,80.889c-8.126,9.237-18.042,11.17-29.03,7.454C260.7,84.549,255.035,75.992,253.545,64.53c-1.268-9.75,1.119-18.507,7.981-25.727,8.893-9.356,23.423-10.885,34.511-6.561,11.512,4.49,16.774,13.677,17.4,25.561.419,7.97.123,15.98.065,23.971-.029,3.975-1.709,6.571-4.451,7.264A6.124,6.124,0,0,1,301.1,83.2C301.052,82.492,301.009,81.787,300.953,80.889Zm-35.6-20.478c.057,1.08.054,2.167.179,3.24,1.544,13.155,12.385,18.364,23.009,15.137,8.522-2.589,13.693-11.916,12.356-21.5-1.03-7.389-4.093-13.42-11.626-15.951C276.844,37.161,264.845,46.8,265.356,60.411Z"/><path d="M398.2,64.22c.115,8.154,5.908,14.426,14.053,15.629a20.391,20.391,0,0,0,17.659-5.522,10.358,10.358,0,0,1,4.608-2.627c2-.406,3.626.895,4.48,2.86.958,2.206.231,4.079-1.265,5.713a28.827,28.827,0,0,1-18.127,9.042c-8.93,1.149-17.425-.243-24.615-6.254-5.2-4.349-7.99-10.08-9.173-16.65-1.566-8.693-.269-16.843,4.63-24.334,8.675-13.267,29.432-17.121,41.7-5.616,6.9,6.471,9.538,14.8,9.368,24.1a3.4,3.4,0,0,1-3.237,3.507,19.99,19.99,0,0,1-2.737.144q-17.109.013-34.219.006ZM429.887,54.2c.059-7.84-6.781-14.288-15.353-14.614-7.982-.3-15.733,6.612-16.217,14.614Z"/><path d="M323.675,68.858c0-5.656-.676-11.409.126-16.95,2.514-17.384,19.777-26.053,35.51-20.693A26.327,26.327,0,0,1,377.49,56.1c.209,8.905.118,17.817.076,26.726-.018,3.946-2.533,6.524-6.06,6.474-3.637-.051-5.943-2.466-5.97-6.52-.059-8.91.041-17.82-.044-26.729-.06-6.3-2.9-11.108-8.7-13.653-5.914-2.593-11.631-1.693-16.574,2.488-3.508,2.968-4.824,7.024-4.8,11.581.037,8.493-.01,16.987.02,25.48.011,2.955-.786,5.517-3.6,6.854-3.954,1.878-8.149-.9-8.447-5.452-.011-.166-.012-.332-.012-.5q0-6.995,0-13.989Z"/><path d="M154.033,67.524c-5.106,6.407-10.026,12.551-14.908,18.726-1.577,1.994-3.311,3.55-6.1,2.871-2.337-.568-3.927-2.049-4.033-4.446a6.44,6.44,0,0,1,1.152-4.055c5.467-6.69,11.111-13.236,16.691-19.833.265-.313.48-.669.806-1.129q-8.019-9.568-16.016-19.111c-.374-.446-.773-.871-1.134-1.328-1.953-2.467-1.84-5.538.264-7.4a5.644,5.644,0,0,1,8.025.572c2.29,2.743,4.427,5.614,6.626,8.432,2.7,3.456,5.391,6.915,8.3,10.647,2.748-3.355,5.312-6.468,7.858-9.6,2.515-3.09,4.954-6.244,7.534-9.278a6.009,6.009,0,0,1,8.293-.827c2.206,1.895,2.093,5.392-.141,8.019-5.592,6.574-11.137,13.188-16.789,19.891l15.362,18.193c.7.826,1.425,1.628,2.087,2.481,2.134,2.749,1.9,5.828-.556,7.686-2.678,2.025-5.574,1.593-7.836-1.227-4.268-5.318-8.506-10.661-12.763-15.988C155.93,69.8,155.077,68.789,154.033,67.524Z"/><path d="M40.6,131.577a19.773,19.773,0,0,1-19.894,20,19.989,19.989,0,1,1,19.894-20Z"/><path d="M450.26,44.588c0-12.579-.018-25.158.01-37.737.01-4.39,2.117-6.789,5.861-6.85a5.711,5.711,0,0,1,6.058,4.816,12.441,12.441,0,0,1,.2,2.479q.015,37.364,0,74.726c0,4.01-1.521,6.339-4.569,7.11a5.841,5.841,0,0,1-7.337-4.577,16.872,16.872,0,0,1-.221-3.229Q450.247,62.957,450.26,44.588Z"/><path d="M119.018,60.093c0,7.486.022,14.972-.011,22.457-.015,3.29-1.507,5.52-4.127,6.412a5.893,5.893,0,0,1-7.79-4.461,16.542,16.542,0,0,1-.212-3.228q-.02-21.21,0-42.42c0-.83.039-1.662.1-2.489.314-3.933,2.326-5.94,5.924-5.933a5.991,5.991,0,0,1,6.084,6.206c.091,7.319.031,14.639.033,21.958Q119.019,59.345,119.018,60.093Z"/><path d="M79.044,131.768a14.241,14.241,0,1,1,14.085,14.459A14.258,14.258,0,0,1,79.044,131.768Z"/><path d="M120.017,13.954a7.07,7.07,0,1,1-6.824-7.212A7.33,7.33,0,0,1,120.017,13.954Z"/><path d="M146.6,131.921a6.412,6.412,0,1,1,6.276,6.484A6.444,6.444,0,0,1,146.6,131.921Z"/></g></g></svg>
